# xmcd
#
# Track frame offsets:
#	150
#	17344
#	31328
#	44974
#	65701
#	84824
#	97407
#	102088
#	117323
#	134884
#	153912
#	167588
#	185270
#
# Disc length: 2732 seconds
#
# Revision: 1
# Processed by: cddbd v1.4b41PL1 Copyright (c) Steve Scherf et al.
# Submitted via: audiograbber 1.80
#
DISCID=ae0aaa0d
DTITLE=Josh Ritter - Golden Age Of Radio
DYEAR=1900
DGENRE=
TTITLE0=Come And Find Me
TTITLE1=You've Got The Moon
TTITLE2=Me and Jiggs
TTITLE3=Anne
TTITLE4=Roll On
TTITLE5=Leaving
TTITLE6=(Untitled)
TTITLE7=Other Side
TTITLE8=Harrisburg
TTITLE9=Lawrence, KS
TTITLE10=A Country Song
TTITLE11=Drive Away
TTITLE12=Song For The Fireflies
EXTD=
EXTT0=
EXTT1=
EXTT2=
EXTT3=
EXTT4=
EXTT5=
EXTT6=
EXTT7=
EXTT8=
EXTT9=
EXTT10=
EXTT11=
EXTT12=
PLAYORDER=
